# xmcd CD database file
#
# Track frame offsets:
#	183
#	14885
#	25598
#	39165
#	54315
#	63058
#	74495
#	86055
#	97263
#	109548
#	122625
#	135665
#	148538
#	157858
#
# Disc length: 2268 seconds
#
# Revision: 2
# Processed by: cddbd v1.5.1PL2 Copyright (c) Steve Scherf et al.
# Submitted via: CDex 1.51
#
DISCID=b608da0e
DTITLE=The Deep River Quartet - Star Spangled Rhythem
DYEAR=1900
DGENRE=Blues
TTITLE0=Star Spangled Rhythem
TTITLE1=Slap That Bass
TTITLE2=I Don't Want To Set The World On Fire
TTITLE3=Ol'time Spiritual
TTITLE4=Mackie Messer
TTITLE5=Cielito Lindo
TTITLE6=My Walking Stick
TTITLE7=Paper Doll
TTITLE8=If I Didn't Care
TTITLE9=Address Unknown
TTITLE10=Shadrach
TTITLE11=Java Jive
TTITLE12=Glow Worm
TTITLE13=Choo Choo Ch'boogie
EXTD=
EXTT0=
EXTT1=
EXTT2=
EXTT3=
EXTT4=
EXTT5=
EXTT6=
EXTT7=
EXTT8=
EXTT9=
EXTT10=
EXTT11=
EXTT12=
EXTT13=
PLAYORDER=
